<svg width="44" height="52" viewBox="0 0 44 52" fill="none" xmlns="http://www.w3.org/2000/svg">
<path d="M24.1445 52H0.660156V0.179688H25.832C32.1836 0.273438 36.6836 2.11328 39.332 5.69922C40.9258 7.90234 41.7227 10.5391 41.7227 13.6094C41.7227 16.7734 40.9258 19.3164 39.332 21.2383C38.4414 22.3164 37.1289 23.3008 35.3945 24.1914C38.043 25.1523 40.0352 26.6758 41.3711 28.7617C42.7305 30.8477 43.4102 33.3789 43.4102 36.3555C43.4102 39.4258 42.6367 42.1797 41.0898 44.6172C40.1055 46.2344 38.875 47.5938 37.3984 48.6953C35.7344 49.9609 33.7656 50.8281 31.4922 51.2969C29.2422 51.7656 26.793 52 24.1445 52ZM23.8984 29.1836H10.9961V43H23.7227C25.9961 43 27.7656 42.6953 29.0312 42.0859C31.3281 40.9609 32.4766 38.8047 32.4766 35.6172C32.4766 32.9219 31.3633 31.0703 29.1367 30.0625C27.8945 29.5 26.1484 29.207 23.8984 29.1836ZM29.2773 19.3047C30.6836 18.4609 31.3867 16.9492 31.3867 14.7695C31.3867 12.3555 30.4492 10.7617 28.5742 9.98828C26.957 9.44922 24.8945 9.17969 22.3867 9.17969H10.9961V20.6055H23.7227C25.9961 20.6055 27.8477 20.1719 29.2773 19.3047Z" fill="black"/>
</svg>
