<svg width="47" height="55" viewBox="0 0 47 55" fill="none" xmlns="http://www.w3.org/2000/svg">
<path d="M39.0469 49.1328C35.1797 52.6719 30.2344 54.4414 24.2109 54.4414C16.7578 54.4414 10.8984 52.0508 6.63281 47.2695C2.36719 42.4648 0.234375 35.8789 0.234375 27.5117C0.234375 18.4648 2.66016 11.4922 7.51172 6.59375C11.7305 2.32813 17.0977 0.195312 23.6133 0.195312C32.332 0.195312 38.707 3.05469 42.7383 8.77344C44.9648 11.9844 46.1602 15.207 46.3242 18.4414H35.4961C34.793 15.957 33.8906 14.082 32.7891 12.8164C30.8203 10.5664 27.9023 9.44141 24.0352 9.44141C20.0977 9.44141 16.9922 11.0352 14.7188 14.2227C12.4453 17.3867 11.3086 21.875 11.3086 27.6875C11.3086 33.5 12.5039 37.8594 14.8945 40.7656C17.3086 43.6484 20.3672 45.0898 24.0703 45.0898C27.8672 45.0898 30.7617 43.8477 32.7539 41.3633C33.8555 40.0273 34.7695 38.0234 35.4961 35.3516H46.2188C45.2812 41 42.8906 45.5938 39.0469 49.1328Z" fill="black"/>
</svg>
