<svg width="45" height="52" viewBox="0 0 45 52" fill="none" xmlns="http://www.w3.org/2000/svg">
<path d="M22.8086 52H0.484375V0.179688H22.8086C26.0195 0.226562 28.6914 0.601562 30.8242 1.30469C34.457 2.5 37.3984 4.69141 39.6484 7.87891C41.4531 10.457 42.6836 13.2461 43.3398 16.2461C43.9961 19.2461 44.3242 22.1055 44.3242 24.8242C44.3242 31.7148 42.9414 37.5508 40.1758 42.332C36.4258 48.7773 30.6367 52 22.8086 52ZM30.8594 13.3984C29.1953 10.5859 25.9023 9.17969 20.9805 9.17969H10.9961V43H20.9805C26.0898 43 29.6523 40.4805 31.668 35.4414C32.7695 32.6758 33.3203 29.3828 33.3203 25.5625C33.3203 20.2891 32.5 16.2344 30.8594 13.3984Z" fill="black"/>
</svg>
