<svg width="50" height="56" viewBox="0 0 50 56" fill="none" xmlns="http://www.w3.org/2000/svg">
<path d="M35.2656 52.7344C32.4062 54.4922 28.8906 55.3711 24.7188 55.3711C17.8516 55.3711 12.2266 52.9922 7.84375 48.2344C3.27344 43.4531 0.988281 36.9141 0.988281 28.6172C0.988281 20.2266 3.29688 13.5 7.91406 8.4375C12.5312 3.375 18.6367 0.84375 26.2305 0.84375C32.8164 0.84375 38.1016 2.51953 42.0859 5.87109C46.0938 9.19922 48.3906 13.3594 48.9766 18.3516H38.3242C37.5039 14.8125 35.5 12.3398 32.3125 10.9336C30.5312 10.1602 28.5508 9.77344 26.3711 9.77344C22.1992 9.77344 18.7656 11.3555 16.0703 14.5195C13.3984 17.6602 12.0625 22.3945 12.0625 28.7227C12.0625 35.0977 13.5156 39.6094 16.4219 42.2578C19.3281 44.9062 22.6328 46.2305 26.3359 46.2305C29.9688 46.2305 32.9453 45.1875 35.2656 43.1016C37.5859 40.9922 39.0156 38.2383 39.5547 34.8398H27.5664V26.1914H49.1523V54H41.9805L40.8906 47.5312C38.8047 49.9922 36.9297 51.7266 35.2656 52.7344Z" fill="black"/>
</svg>
