<svg width="51" height="56" viewBox="0 0 51 56" fill="none" xmlns="http://www.w3.org/2000/svg">
<path d="M25.4062 55.4414C18 55.4414 12.3398 53.4258 8.42578 49.3945C3.17578 44.4492 0.550781 37.3242 0.550781 28.0195C0.550781 18.5273 3.17578 11.4023 8.42578 6.64453C12.3398 2.61328 18 0.597656 25.4062 0.597656C32.8125 0.597656 38.4727 2.61328 42.3867 6.64453C47.6133 11.4023 50.2266 18.5273 50.2266 28.0195C50.2266 37.3242 47.6133 44.4492 42.3867 49.3945C38.4727 53.4258 32.8125 55.4414 25.4062 55.4414ZM35.6367 41.5195C38.1445 38.3555 39.3984 33.8555 39.3984 28.0195C39.3984 22.207 38.1328 17.7188 35.6016 14.5547C33.0938 11.3672 29.6953 9.77344 25.4062 9.77344C21.1172 9.77344 17.6953 11.3555 15.1406 14.5195C12.5859 17.6836 11.3086 22.1836 11.3086 28.0195C11.3086 33.8555 12.5859 38.3555 15.1406 41.5195C17.6953 44.6836 21.1172 46.2656 25.4062 46.2656C29.6953 46.2656 33.1055 44.6836 35.6367 41.5195Z" fill="black"/>
</svg>
