<svg width="41" height="52" viewBox="0 0 41 52" fill="none" xmlns="http://www.w3.org/2000/svg">
<path d="M22.4922 33.3672H11.4883V52H0.730469V0.179688H23.3008C28.5039 0.179688 32.6523 1.51562 35.7461 4.1875C38.8398 6.85938 40.3867 10.9961 40.3867 16.5977C40.3867 22.7148 38.8398 27.0391 35.7461 29.5703C32.6523 32.1016 28.2344 33.3672 22.4922 33.3672ZM27.5547 22.5742C28.9609 21.332 29.6641 19.3633 29.6641 16.668C29.6641 13.9727 28.9492 12.0508 27.5195 10.9023C26.1133 9.75391 24.1328 9.17969 21.5781 9.17969H11.4883V24.4375H21.5781C24.1328 24.4375 26.125 23.8164 27.5547 22.5742Z" fill="black"/>
</svg>
