<svg width="51" height="58" viewBox="0 0 51 58" fill="none" xmlns="http://www.w3.org/2000/svg">
<path d="M33.6328 54.2812C31.3125 55.0547 28.5352 55.4414 25.3008 55.4414C18.5508 55.4414 12.9727 53.4258 8.56641 49.3945C3.22266 44.543 0.550781 37.418 0.550781 28.0195C0.550781 18.5508 3.29297 11.3906 8.77734 6.53906C13.2539 2.57812 18.8203 0.597656 25.4766 0.597656C32.1797 0.597656 37.8047 2.69531 42.3516 6.89062C47.6016 11.7422 50.2266 18.5273 50.2266 27.2461C50.2266 31.8633 49.6641 35.7305 48.5391 38.8477C47.625 41.8242 46.2773 44.2969 44.4961 46.2656L50.4727 51.8555L44.8125 57.7617L38.5547 51.8555C36.6562 53.0039 35.0156 53.8125 33.6328 54.2812ZM31.3125 44.9297L26.0742 39.9375L31.6641 34.1016L36.9023 39.0938C37.7227 37.4062 38.2969 35.9297 38.625 34.6641C39.1406 32.7656 39.3984 30.5508 39.3984 28.0195C39.3984 22.207 38.2031 17.7188 35.8125 14.5547C33.4453 11.3672 29.9766 9.77344 25.4062 9.77344C21.1172 9.77344 17.6953 11.2969 15.1406 14.3438C12.5859 17.3906 11.3086 21.9492 11.3086 28.0195C11.3086 35.1211 13.1367 40.207 16.793 43.2773C19.1602 45.2695 21.9961 46.2656 25.3008 46.2656C26.543 46.2656 27.7383 46.1133 28.8867 45.8086C29.5195 45.6445 30.3281 45.3516 31.3125 44.9297Z" fill="black"/>
</svg>
