<svg width="44" height="52" viewBox="0 0 44 52" fill="none" xmlns="http://www.w3.org/2000/svg">
<path d="M22.4922 31.6797H11.3125V52H0.730469V0.179688H26.1484C29.7812 0.25 32.5703 0.695313 34.5156 1.51562C36.4844 2.33594 38.1484 3.54297 39.5078 5.13672C40.6328 6.44922 41.5234 7.90234 42.1797 9.49609C42.8359 11.0898 43.1641 12.9062 43.1641 14.9453C43.1641 17.4062 42.543 19.832 41.3008 22.2227C40.0586 24.5898 38.0078 26.2656 35.1484 27.25C37.5391 28.2109 39.2266 29.582 40.2109 31.3633C41.2188 33.1211 41.7227 35.8164 41.7227 39.4492V42.9297C41.7227 45.2969 41.8164 46.9023 42.0039 47.7461C42.2852 49.082 42.9414 50.0664 43.9727 50.6992V52H32.0547C31.7266 50.8516 31.4922 49.9258 31.3516 49.2227C31.0703 47.7695 30.918 46.2812 30.8945 44.7578L30.8242 39.9414C30.7773 36.6367 30.168 34.4336 28.9961 33.332C27.8477 32.2305 25.6797 31.6797 22.4922 31.6797ZM29.0664 22.2578C31.2227 21.2734 32.3008 19.3281 32.3008 16.4219C32.3008 13.2813 31.2578 11.1719 29.1719 10.0938C28 9.48438 26.2422 9.17969 23.8984 9.17969H11.3125V23.1016H23.582C26.0195 23.1016 27.8477 22.8203 29.0664 22.2578Z" fill="black"/>
</svg>
