<svg width="44" height="56" viewBox="0 0 44 56" fill="none" xmlns="http://www.w3.org/2000/svg">
<path d="M22.293 46.5117C24.8477 46.5117 26.9219 46.2305 28.5156 45.668C31.5391 44.5898 33.0508 42.5859 33.0508 39.6562C33.0508 37.9453 32.3008 36.6211 30.8008 35.6836C29.3008 34.7695 26.9453 33.9609 23.7344 33.2578L18.25 32.0273C12.8594 30.8086 9.13281 29.4844 7.07031 28.0547C3.57812 25.6641 1.83203 21.9258 1.83203 16.8398C1.83203 12.1992 3.51953 8.34375 6.89453 5.27344C10.2695 2.20313 15.2266 0.667969 21.7656 0.667969C27.2266 0.667969 31.8789 2.12109 35.7227 5.02734C39.5898 7.91016 41.6172 12.1055 41.8047 17.6133H31.3984C31.2109 14.4961 29.8516 12.2812 27.3203 10.9688C25.6328 10.1016 23.5352 9.66797 21.0273 9.66797C18.2383 9.66797 16.0117 10.2305 14.3477 11.3555C12.6836 12.4805 11.8516 14.0508 11.8516 16.0664C11.8516 17.918 12.6719 19.3008 14.3125 20.2148C15.3672 20.8242 17.6172 21.5391 21.0625 22.3594L29.9922 24.5039C33.9062 25.4414 36.8594 26.6953 38.8516 28.2656C41.9453 30.7031 43.4922 34.2305 43.4922 38.8477C43.4922 43.582 41.6758 47.5195 38.043 50.6602C34.4336 53.7773 29.3242 55.3359 22.7148 55.3359C15.9648 55.3359 10.6562 53.8008 6.78906 50.7305C2.92188 47.6367 0.988281 43.3945 0.988281 38.0039H11.3242C11.6523 40.3711 12.2969 42.1406 13.2578 43.3125C15.0156 45.4453 18.0273 46.5117 22.293 46.5117Z" fill="black"/>
</svg>
