<svg xmlns='http://www.w3.org/2000/svg' width="30" height="30"><circle cx="-0.03907370939850807" cy="-4.97981565240776e-38" r="5" fill="rgba(31, 119, 180, 255)"/><circle cx="-5.806276285714955e-36" cy="1.8187597322562744e-17" r="5" fill="rgba(31, 119, 180, 255)"/><circle cx="-2.1670657923639356e+27" cy="-28384579865804800" r="5" fill="rgba(31, 119, 180, 255)"/><circle cx="-0.29666709899902344" cy="4.870925328861083e-34" r="5" fill="rgba(31, 119, 180, 255)"/><circle cx="3.287949401528856e+30" cy="-1.8192217183250505e-39" r="5" fill="rgba(31, 119, 180, 255)"/><circle cx="1314822160384" cy="-4.774089798435213e+37" r="5" fill="rgba(31, 119, 180, 255)"/><circle cx="-80488169472" cy="2.265001948158761e-30" r="5" fill="rgba(31, 119, 180, 255)"/><circle cx="3.3403290579235084e-34" cy="1.3976719666773156e-35" r="5" fill="rgba(31, 119, 180, 255)"/><circle cx="-129675263213568" cy="-2121872723654213600" r="5" fill="rgba(31, 119, 180, 255)"/><circle cx="-6.527081169535854e+28" cy="5.200218033962756e-11" r="5" fill="rgba(31, 119, 180, 255)"/><circle cx="-48933371904000" cy="8.952881496029079e+28" r="5" fill="rgba(31, 119, 180, 255)"/><circle cx="-2.829753086643848e-34" cy="1.3822026684972685e+28" r="5" fill="rgba(31, 119, 180, 255)"/><circle cx="7.432048407742471e-25" cy="-4.246279076757294e+23" r="5" fill="rgba(31, 119, 180, 255)"/><circle cx="-9.438184258184841e-16" cy="1.3224810246533334e+26" r="5" fill="rgba(31, 119, 180, 255)"/><circle cx="24925031400193655000" cy="3.3506134669256707e+28" r="5" fill="rgba(31, 119, 180, 255)"/><circle cx="3.6137423841976144e+21" cy="-4.863079822424306e-36" r="5" fill="rgba(31, 119, 180, 255)"/><circle cx="-2.663642211109335e-38" cy="21099.625" r="5" fill="rgba(31, 119, 180, 255)"/><circle cx="1.3885370379293849e-27" cy="-3.9240836330798644e+24" r="5" fill="rgba(31, 119, 180, 255)"/><circle cx="9.002483722407867e+29" cy="-4.058045271328547e-35" r="5" fill="rgba(31, 119, 180, 255)"/><circle cx="-4537921982343151600" cy="10.73590087890625" r="5" fill="rgba(31, 119, 180, 255)"/><circle cx="-1.7533175432349335e-14" cy="-1.4247219798378076e+31" r="5" fill="rgba(31, 119, 180, 255)"/><circle cx="2.3181789821080656e-11" cy="-4.985662990639695e-37" r="5" fill="rgba(31, 119, 180, 255)"/><circle cx="-5736160.5" cy="0.11164140701293945" r="5" fill="rgba(31, 119, 180, 255)"/><circle cx="-0.000041491122829029337" cy="2.8006505556646247e-33" r="5" fill="rgba(31, 119, 180, 255)"/><circle cx="-2.1687025889826434e+33" cy="2.602077417394138e-26" r="5" fill="rgba(31, 119, 180, 255)"/><circle cx="5.3833820911020595e-34" cy="3.5841654482900976e+36" r="5" fill="rgba(31, 119, 180, 255)"/><circle cx="-1.2201679834889715e+31" cy="2.200502000430181e+35" r="5" fill="rgba(31, 119, 180, 255)"/><circle cx="3.0848578835377142e+22" cy="-7.641209651289795e+32" r="5" fill="rgba(31, 119, 180, 255)"/><circle cx="-1.483457006808217e+22" cy="-1.0067783660341608e-23" r="5" fill="rgba(31, 119, 180, 255)"/><circle cx="3.2901607819642168e-15" cy="5.876994175097379e-20" r="5" fill="rgba(31, 119, 180, 255)"/><circle cx="926710198923654300000" cy="-9.427012434361314e+32" r="5" fill="rgba(31, 119, 180, 255)"/><circle cx="-1.1325831264084214e-22" cy="-6.811347668234015e-22" r="5" fill="rgba(31, 119, 180, 255)"/><circle cx="-1.1117336144390683e+26" cy="1.0434118042951762e-23" r="5" fill="rgba(31, 119, 180, 255)"/><circle cx="9.213863449986093e-8" cy="-1.7509355697482604e-34" r="5" fill="rgba(31, 119, 180, 255)"/><circle cx="1.4841259027604486e-35" cy="-0.0014392808079719543" r="5" fill="rgba(31, 119, 180, 255)"/><circle cx="48112154930315260" cy="-5.215698886708885e+28" r="5" fill="rgba(31, 119, 180, 255)"/><circle cx="-8.731256273541987e-10" cy="-5.891279584276169e-19" r="5" fill="rgba(31, 119, 180, 255)"/><circle cx="3.588778850916602e-13" cy="-1.3314871531538083e-31" r="5" fill="rgba(31, 119, 180, 255)"/><circle cx="2.9947716927594172e-33" cy="-7.378444017684293e-38" r="5" fill="rgba(31, 119, 180, 255)"/><circle cx="0.02819669246673584" cy="1.7854118396264078e+37" r="5" fill="rgba(31, 119, 180, 255)"/><circle cx="-1.7520963704196974e-34" cy="-2.491414502312722e-38" r="5" fill="rgba(31, 119, 180, 255)"/><circle cx="-2.1728922674383454e-35" cy="65225.25" r="5" fill="rgba(31, 119, 180, 255)"/><circle cx="-571396454522445370000" cy="6.282376449758559e+29" r="5" fill="rgba(31, 119, 180, 255)"/><circle cx="7.789935272433525e+34" cy="1.8176880370546507e-19" r="5" fill="rgba(31, 119, 180, 255)"/><circle cx="-42931585024" cy="-14430.5625" r="5" fill="rgba(31, 119, 180, 255)"/><circle cx="5.064423084259033" cy="-5.316493076919255e+29" r="5" fill="rgba(31, 119, 180, 255)"/><circle cx="4.6695102493194385e-33" cy="-2021117120217088" r="5" fill="rgba(31, 119, 180, 255)"/><circle cx="2.4488586354802526e-27" cy="2.19353868053182e-27" r="5" fill="rgba(31, 119, 180, 255)"/><circle cx="-1.5374267954033343e-24" cy="-6.060048296507858e-13" r="5" fill="rgba(31, 119, 180, 255)"/><circle cx="0.4551296532154083" cy="0.0003352556377649307" r="5" fill="rgba(31, 119, 180, 255)"/><circle cx="-927.76171875" cy="-3.089957726537198e+27" r="5" fill="rgba(31, 119, 180, 255)"/><circle cx="1.7854047287103545e-21" cy="-6.702503014821559e-7" r="5" fill="rgba(31, 119, 180, 255)"/><circle cx="-4.844492096367503e-8" cy="142752343413227520" r="5" fill="rgba(31, 119, 180, 255)"/><circle cx="-3.4279031574710284e-34" cy="3.0957239435386524e+22" r="5" fill="rgba(31, 119, 180, 255)"/><circle cx="4.907438393327003e-30" cy="-12989300736" r="5" fill="rgba(31, 119, 180, 255)"/><circle cx="312347064195350500" cy="-3.1235140340868384e-7" r="5" fill="rgba(31, 119, 180, 255)"/><circle cx="0.000018583028577268124" cy="250.7001953125" r="5" fill="rgba(31, 119, 180, 255)"/><circle cx="-440438.03125" cy="8676830370332672" r="5" fill="rgba(31, 119, 180, 255)"/><circle cx="-900822145695744" cy="82.42041015625" r="5" fill="rgba(31, 119, 180, 255)"/><circle cx="835.88671875" cy="6.086932614563337e-20" r="5" fill="rgba(31, 119, 180, 255)"/><circle cx="4.898169889149339e-22" cy="-258685399201742850" r="5" fill="rgba(31, 119, 180, 255)"/><circle cx="1.1194361244846398e+24" cy="-3.0164754373278343e+29" r="5" fill="rgba(31, 119, 180, 255)"/><circle cx="-1.3535288033556604e-23" cy="59593037644249960000" r="5" fill="rgba(31, 119, 180, 255)"/><circle cx="3.3838221193151927e-34" cy="4.283601251486857e-12" r="5" fill="rgba(31, 119, 180, 255)"/><circle cx="0.007202118635177612" cy="-6392.03125" r="5" fill="rgba(31, 119, 180, 255)"/><circle cx="-2949808.25" cy="2.5272493076045066e-7" r="5" fill="rgba(31, 119, 180, 255)"/><circle cx="-11948800344064" cy="1.8540811247413913e-13" r="5" fill="rgba(31, 119, 180, 255)"/><circle cx="3060267277615104" cy="-8.993068845585303e-22" r="5" fill="rgba(31, 119, 180, 255)"/><circle cx="12865.9384765625" cy="-0.0001543508842587471" r="5" fill="rgba(31, 119, 180, 255)"/><circle cx="-5.231341782351789e+30" cy="4.806594338312934e-17" r="5" fill="rgba(31, 119, 180, 255)"/><circle cx="-1.977644187268766e-16" cy="3181810728923300000" r="5" fill="rgba(31, 119, 180, 255)"/><circle cx="1.9043755651832592e+25" cy="1.2709211387768182e+36" r="5" fill="rgba(31, 119, 180, 255)"/><circle cx="1.7343794272789848e+36" cy="-2.1728872015627886e-32" r="5" fill="rgba(31, 119, 180, 255)"/><circle cx="2.985373837224325e+26" cy="4.2723485688845824e+26" r="5" fill="rgba(31, 119, 180, 255)"/><circle cx="6.557181330402963e+36" cy="-2.0259920198338636e-25" r="5" fill="rgba(31, 119, 180, 255)"/><circle cx="-3.1619366655751617e-21" cy="-5.199188003799961e-33" r="5" fill="rgba(31, 119, 180, 255)"/><circle cx="-5.013455665900195e-18" cy="0.1823434829711914" r="5" fill="rgba(31, 119, 180, 255)"/><circle cx="-0.003571614855900407" cy="1.2660665326163585e-25" r="5" fill="rgba(31, 119, 180, 255)"/><circle cx="2.9083613969040586e-32" cy="3.646959788423003e+36" r="5" fill="rgba(31, 119, 180, 255)"/><circle cx="1.197506171307656e-36" cy="-7.118147783261487e-40" r="5" fill="rgba(31, 119, 180, 255)"/><circle cx="399413084160" cy="0.015113651752471924" r="5" fill="rgba(31, 119, 180, 255)"/><circle cx="4.716976809149287e-12" cy="1.3143343395866095e-31" r="5" fill="rgba(31, 119, 180, 255)"/><circle cx="5.00767516985747e-36" cy="1.0149165647595268e+36" r="5" fill="rgba(31, 119, 180, 255)"/><circle cx="-8.042665767591377e-37" cy="NaN" r="5" fill="rgba(31, 119, 180, 255)"/><circle cx="-3.294484548652699e-34" cy="6.997693101008277e+21" r="5" fill="rgba(31, 119, 180, 255)"/><circle cx="-21611546624" cy="2.0305861349863634e-36" r="5" fill="rgba(31, 119, 180, 255)"/><circle cx="2.100734560214424e-18" cy="17233891819520" r="5" fill="rgba(31, 119, 180, 255)"/><circle cx="6.998950572746632e-13" cy="9.839007660363865e-17" r="5" fill="rgba(31, 119, 180, 255)"/><circle cx="7.305047367239274e-38" cy="NaN" r="5" fill="rgba(31, 119, 180, 255)"/><circle cx="-7732250279936" cy="-0.34533119201660156" r="5" fill="rgba(31, 119, 180, 255)"/><circle cx="-498849792" cy="16837059050645488000" r="5" fill="rgba(31, 119, 180, 255)"/><circle cx="7.3041800622524755e-31" cy="0.0000017418424249626696" r="5" fill="rgba(31, 119, 180, 255)"/><circle cx="-3.5867518732857206e-8" cy="1742643200" r="5" fill="rgba(31, 119, 180, 255)"/><circle cx="-3.1568339494086008e+32" cy="7.693986684324135e-33" r="5" fill="rgba(31, 119, 180, 255)"/><circle cx="-4.083348013299611e-22" cy="0.3218555450439453" r="5" fill="rgba(31, 119, 180, 255)"/><circle cx="6364.46875" cy="-48971297923096640000" r="5" fill="rgba(31, 119, 180, 255)"/><circle cx="2.613163721457316e-22" cy="6.01712628010482e-38" r="5" fill="rgba(31, 119, 180, 255)"/><circle cx="-3.2220311060894735e+33" cy="-47766747217920" r="5" fill="rgba(31, 119, 180, 255)"/><circle cx="0.00039107914199121296" cy="29387.125" r="5" fill="rgba(31, 119, 180, 255)"/><circle cx="125447.5078125" cy="2.81167131422692e+32" r="5" fill="rgba(31, 119, 180, 255)"/><circle cx="-1.694234015303664e-7" cy="1.908980281762431e-24" r="5" fill="rgba(31, 119, 180, 255)"/><circle cx="0.008608282543718815" cy="239161" r="5" fill="rgba(31, 119, 180, 255)"/><circle cx="-446750031872" cy="3.138881149530753e+33" r="5" fill="rgba(31, 119, 180, 255)"/><circle cx="4.570959066277151e+22" cy="-7.660283123955211e-27" r="5" fill="rgba(31, 119, 180, 255)"/><circle cx="-4.3499752411246817e-13" cy="3.518570234155988e+34" r="5" fill="rgba(31, 119, 180, 255)"/><circle cx="1.5820518413275885e+34" cy="-9.284030562962611e-38" r="5" fill="rgba(31, 119, 180, 255)"/><circle cx="2.2195109248765443e-15" cy="-477292544" r="5" fill="rgba(31, 119, 180, 255)"/><circle cx="-1.0227354336617346e+36" cy="-3.0603179931640625" r="5" fill="rgba(31, 119, 180, 255)"/><circle cx="-160390184960000" cy="2.4178978020033e-23" r="5" fill="rgba(31, 119, 180, 255)"/><circle cx="2.943407996902497e-31" cy="-9.012675631887875e+22" r="5" fill="rgba(31, 119, 180, 255)"/><circle cx="1.4195891709499205e+32" cy="7.063582288289589e-35" r="5" fill="rgba(31, 119, 180, 255)"/><circle cx="-61425.75" cy="-4464103108116480" r="5" fill="rgba(31, 119, 180, 255)"/><circle cx="4.494849656301379e-31" cy="6.219550348752097e+23" r="5" fill="rgba(31, 119, 180, 255)"/><circle cx="-121295.5" cy="3.1137460149731027e+34" r="5" fill="rgba(31, 119, 180, 255)"/><circle cx="2.4657971472114208e-29" cy="-3.8688494563636185e-18" r="5" fill="rgba(31, 119, 180, 255)"/><circle cx="4.286462541710259e+25" cy="-1.0742407874333437e+38" r="5" fill="rgba(31, 119, 180, 255)"/><circle cx="-1.668679850756319e-19" cy="3.0643591715766834e-30" r="5" fill="rgba(31, 119, 180, 255)"/><circle cx="232929568019508630000" cy="4.3020149481221964e+32" r="5" fill="rgba(31, 119, 180, 255)"/><circle cx="-356230" cy="7.822405210371807e-30" r="5" fill="rgba(31, 119, 180, 255)"/><circle cx="0.004915088880807161" cy="-1.8720243133429904e-8" r="5" fill="rgba(31, 119, 180, 255)"/><circle cx="4.4368310167267135e-31" cy="-4.558002855200436e-32" r="5" fill="rgba(31, 119, 180, 255)"/><circle cx="-2.1253646487747722e-17" cy="4.32581259701692e-9" r="5" fill="rgba(31, 119, 180, 255)"/><circle cx="-41785241767673590000" cy="8888623797633024" r="5" fill="rgba(31, 119, 180, 255)"/><circle cx="-9.632259739238584e-21" cy="-2.969310312575339e-24" r="5" fill="rgba(31, 119, 180, 255)"/><circle cx="1.3561803857391617e-22" cy="1.8501069735006626e+24" r="5" fill="rgba(31, 119, 180, 255)"/><circle cx="1.9802251951658662e+38" cy="6.209794716764022e-26" r="5" fill="rgba(31, 119, 180, 255)"/><circle cx="2.0106939730996069e-28" cy="-8.04365504489319e+34" r="5" fill="rgba(31, 119, 180, 255)"/><circle cx="-8.367196593769892e-19" cy="1.746510347013086e+22" r="5" fill="rgba(31, 119, 180, 255)"/><circle cx="1.1615942219593101e-33" cy="-2.9477318303009533e+38" r="5" fill="rgba(31, 119, 180, 255)"/><circle cx="5.752621107651495e-22" cy="1.73295372305625e-20" r="5" fill="rgba(31, 119, 180, 255)"/><circle cx="2.176545876864111e-8" cy="-4.965611255514091e-12" r="5" fill="rgba(31, 119, 180, 255)"/><circle cx="22452555204767252000" cy="-0.000013282580766826868" r="5" fill="rgba(31, 119, 180, 255)"/><circle cx="9.52052848951385e-37" cy="4.6703223372407153e-29" r="5" fill="rgba(31, 119, 180, 255)"/><circle cx="17000455274626023000" cy="-4005117952" r="5" fill="rgba(31, 119, 180, 255)"/><circle cx="-2.4544855816875604e+26" cy="989564863044911100" r="5" fill="rgba(31, 119, 180, 255)"/><circle cx="4.689017578071334e-34" cy="-9.381431758766084e-23" r="5" fill="rgba(31, 119, 180, 255)"/><circle cx="-1.0599323068544164e-14" cy="2.155012279736468e-12" r="5" fill="rgba(31, 119, 180, 255)"/><circle cx="5453818728808448" cy="-5.707274930433215e-13" r="5" fill="rgba(31, 119, 180, 255)"/><circle cx="2.3428086935084653e-16" cy="1.6678875088015386e+34" r="5" fill="rgba(31, 119, 180, 255)"/><circle cx="1.4030264061659636e-8" cy="-3.332245790208747e+22" r="5" fill="rgba(31, 119, 180, 255)"/><circle cx="8.667200290801702e-9" cy="3.246270313964357e-19" r="5" fill="rgba(31, 119, 180, 255)"/><circle cx="2.5823234555410125e-20" cy="-1.144192433941843e-15" r="5" fill="rgba(31, 119, 180, 255)"/><circle cx="-2.8543016040132263e+25" cy="3.892489306881265e-28" r="5" fill="rgba(31, 119, 180, 255)"/><circle cx="2.35905722914626e-25" cy="-1.0568385278020287e-8" r="5" fill="rgba(31, 119, 180, 255)"/><circle cx="0.000023598200641572475" cy="2.901871349822189e-17" r="5" fill="rgba(31, 119, 180, 255)"/><circle cx="9.005197282307975e-11" cy="-6.337682115220566e-14" r="5" fill="rgba(31, 119, 180, 255)"/><circle cx="-1.9407544148142275e-14" cy="-0.11315202713012695" r="5" fill="rgba(31, 119, 180, 255)"/><circle cx="2.6398876036547203e+22" cy="-725115469824" r="5" fill="rgba(31, 119, 180, 255)"/><circle cx="1.7187228345412176e-37" cy="120135876608" r="5" fill="rgba(31, 119, 180, 255)"/><circle cx="-7.412521373246102e-21" cy="-5.572846649327593e-23" r="5" fill="rgba(31, 119, 180, 255)"/><circle cx="0.0000015496552805416286" cy="-61877490754256900" r="5" fill="rgba(31, 119, 180, 255)"/><circle cx="819597957576785900" cy="2.4163360595703125" r="5" fill="rgba(31, 119, 180, 255)"/><circle cx="-2725465986957312" cy="6.25224036384557e-27" r="5" fill="rgba(31, 119, 180, 255)"/><circle cx="-1.426328405670129e-27" cy="-4.092465512984685e+24" r="5" fill="rgba(31, 119, 180, 255)"/><circle cx="NaN" cy="-6.576206230611188e+37" r="5" fill="rgba(31, 119, 180, 255)"/><circle cx="-2.50819249261394e-28" cy="1.2454840219063013e-15" r="5" fill="rgba(31, 119, 180, 255)"/><circle cx="1.5370007133697072e-7" cy="2.0224828509830784e-23" r="5" fill="rgba(31, 119, 180, 255)"/><circle cx="-3.0200388968105683e-30" cy="-1516.5390625" r="5" fill="rgba(31, 119, 180, 255)"/><circle cx="-4.956981617245852e-36" cy="7.038674385093785e-16" r="5" fill="rgba(31, 119, 180, 255)"/><circle cx="-2.649042251386471e-25" cy="11652418072739840" r="5" fill="rgba(31, 119, 180, 255)"/><circle cx="-2.241450682479039e+21" cy="472266" r="5" fill="rgba(31, 119, 180, 255)"/><circle cx="-4.740493310037078e+32" cy="-4.1150443277309056e+24" r="5" fill="rgba(31, 119, 180, 255)"/><circle cx="188.04981994628906" cy="-3.0271653638877766e+28" r="5" fill="rgba(31, 119, 180, 255)"/><circle cx="0.000004650297796615632" cy="-172866317630570500" r="5" fill="rgba(31, 119, 180, 255)"/><circle cx="52340457472" cy="3.3294900040128916e-15" r="5" fill="rgba(31, 119, 180, 255)"/><circle cx="38794893396541440" cy="-2.2162927724527775e-29" r="5" fill="rgba(31, 119, 180, 255)"/><circle cx="-20113228767952896" cy="3.8171459851309734e-38" r="5" fill="rgba(31, 119, 180, 255)"/><circle cx="-1.1511376276532954e-18" cy="3.6913577020341004e-30" r="5" fill="rgba(31, 119, 180, 255)"/><circle cx="-0.001174233853816986" cy="77164.5" r="5" fill="rgba(31, 119, 180, 255)"/><circle cx="-3.9677800600657065e-7" cy="1.845199515359668e+38" r="5" fill="rgba(31, 119, 180, 255)"/><circle cx="-2.063833045434782e-14" cy="-2175418368" r="5" fill="rgba(31, 119, 180, 255)"/><circle cx="9.633669103315682e-39" cy="24.2354736328125" r="5" fill="rgba(31, 119, 180, 255)"/><circle cx="-1.3975450456135215e-30" cy="-2.6837527623049196e-23" r="5" fill="rgba(31, 119, 180, 255)"/><circle cx="6.881923564951865e+27" cy="39.661376953125" r="5" fill="rgba(31, 119, 180, 255)"/><circle cx="-5.93572906024226e+30" cy="-6315680" r="5" fill="rgba(31, 119, 180, 255)"/><circle cx="3.870770996926579e-20" cy="-6831984345088" r="5" fill="rgba(31, 119, 180, 255)"/><circle cx="-115909966044332030" cy="676697369209808600000" r="5" fill="rgba(31, 119, 180, 255)"/><circle cx="-2.8836931757411643e-15" cy="-4.990509033203125" r="5" fill="rgba(31, 119, 180, 255)"/><circle cx="-1.4465832219091675e+21" cy="2.9483268721662128e+26" r="5" fill="rgba(31, 119, 180, 255)"/><circle cx="3.399711874354578e+23" cy="39465325009624370000" r="5" fill="rgba(31, 119, 180, 255)"/><circle cx="-2.5157941245468846e+30" cy="3.672433298000271e+27" r="5" fill="rgba(31, 119, 180, 255)"/><circle cx="-50016000" cy="-145761501184" r="5" fill="rgba(31, 119, 180, 255)"/><circle cx="-110060656543540450000" cy="0.000004340690793469548" r="5" fill="rgba(31, 119, 180, 255)"/><circle cx="1.245758947170207e-19" cy="1.9444723875494674e-7" r="5" fill="rgba(31, 119, 180, 255)"/><circle cx="-7.806140731991457e-29" cy="9.613696896394221e-17" r="5" fill="rgba(31, 119, 180, 255)"/><circle cx="2.353241697249164e-24" cy="12.72735595703125" r="5" fill="rgba(31, 119, 180, 255)"/><circle cx="-949317861376" cy="-1485.6640625" r="5" fill="rgba(31, 119, 180, 255)"/><circle cx="7.151336669921875" cy="4.943804389343703e-29" r="5" fill="rgba(31, 119, 180, 255)"/><circle cx="2.100602311156713e-29" cy="-2.2853855127387444e-38" r="5" fill="rgba(31, 119, 180, 255)"/><circle cx="3.1319351544720556e-14" cy="NaN" r="5" fill="rgba(31, 119, 180, 255)"/><circle cx="-0.0077231829054653645" cy="6.241732363703115e+30" r="5" fill="rgba(31, 119, 180, 255)"/><circle cx="-0.00027274154126644135" cy="7.705559637207102e-20" r="5" fill="rgba(31, 119, 180, 255)"/><circle cx="-4.8574589976678e-17" cy="6.272663550903084e-31" r="5" fill="rgba(31, 119, 180, 255)"/><circle cx="2.0686772029052942e-35" cy="-7.182456110824822e-23" r="5" fill="rgba(31, 119, 180, 255)"/><circle cx="-897478656" cy="-7.882512420565035e-10" r="5" fill="rgba(31, 119, 180, 255)"/><circle cx="-1.0580322312078902e-35" cy="-592852" r="5" fill="rgba(31, 119, 180, 255)"/><circle cx="1.2856879779017053e-38" cy="7.473694742608933e+37" r="5" fill="rgba(31, 119, 180, 255)"/><circle cx="-5.612559028644881e-13" cy="-1.722311235108487e+36" r="5" fill="rgba(31, 119, 180, 255)"/><circle cx="5.898246407199528e+36" cy="0.000002466447767801583" r="5" fill="rgba(31, 119, 180, 255)"/><circle cx="-2059629756416" cy="-3.121511473284161e-36" r="5" fill="rgba(31, 119, 180, 255)"/><circle cx="-2302622826496" cy="-1.2654375335340545e-38" r="5" fill="rgba(31, 119, 180, 255)"/><circle cx="-3.8038169644586245e-31" cy="7.449960827928216e-20" r="5" fill="rgba(31, 119, 180, 255)"/><circle cx="6.175175117344861e-16" cy="-0.006586819887161255" r="5" fill="rgba(31, 119, 180, 255)"/><circle cx="490285549223936" cy="-1.017151044380854e-15" r="5" fill="rgba(31, 119, 180, 255)"/><circle cx="470448040176517100" cy="-0.7482032775878906" r="5" fill="rgba(31, 119, 180, 255)"/><circle cx="-1908606156931072" cy="1.1498432743296755e+33" r="5" fill="rgba(31, 119, 180, 255)"/><circle cx="-1.4821460989816363e-21" cy="2213070616108466200" r="5" fill="rgba(31, 119, 180, 255)"/><circle cx="3.655199683881903e-33" cy="-2.1217836515541322e-13" r="5" fill="rgba(31, 119, 180, 255)"/><circle cx="-5.245116129143086e-29" cy="1.607793195122477e+32" r="5" fill="rgba(31, 119, 180, 255)"/><circle cx="-0.0003604721277952194" cy="-5.4157375860224966e-20" r="5" fill="rgba(31, 119, 180, 255)"/><circle cx="67124334592" cy="-0.00030658580362796783" r="5" fill="rgba(31, 119, 180, 255)"/><circle cx="1.5940510021376287e+22" cy="-3.8775982479175714e-16" r="5" fill="rgba(31, 119, 180, 255)"/><circle cx="2.1306464291664443e-38" cy="-0.030369877815246582" r="5" fill="rgba(31, 119, 180, 255)"/><circle cx="-1.5392874671834444e+28" cy="-130134325982637590000" r="5" fill="rgba(31, 119, 180, 255)"/><circle cx="-26922868277248" cy="-3.196662638268327e-18" r="5" fill="rgba(31, 119, 180, 255)"/><circle cx="-7.506487449054444e+23" cy="0.21364688873291016" r="5" fill="rgba(31, 119, 180, 255)"/><circle cx="6.437659586295763e+32" cy="548036" r="5" fill="rgba(31, 119, 180, 255)"/><circle cx="0.5469017624855042" cy="1.3447633708033629e+34" r="5" fill="rgba(31, 119, 180, 255)"/><circle cx="4.7742032549535907e-11" cy="1.2767486130156774e-31" r="5" fill="rgba(31, 119, 180, 255)"/><circle cx="-1.6830735668514602e+33" cy="321411438054735900" r="5" fill="rgba(31, 119, 180, 255)"/><circle cx="-7.703448943650514e-31" cy="1.598582039152168e-30" r="5" fill="rgba(31, 119, 180, 255)"/><circle cx="2.561446998057117e+26" cy="13616349184" r="5" fill="rgba(31, 119, 180, 255)"/><circle cx="2.603646748263181e-34" cy="-46065940168704" r="5" fill="rgba(31, 119, 180, 255)"/><circle cx="1.7411681092153325e-13" cy="-40291584" r="5" fill="rgba(31, 119, 180, 255)"/><circle cx="3.603236830861664e+26" cy="1.0750715549307092e+38" r="5" fill="rgba(31, 119, 180, 255)"/><circle cx="2.1728922674383454e-35" cy="9.565413088261068e-37" r="5" fill="rgba(31, 119, 180, 255)"/><circle cx="-2.843804940691828e-22" cy="1.9051700835902134e-25" r="5" fill="rgba(31, 119, 180, 255)"/><circle cx="-2.282498611969057e+31" cy="384222350409300200000" r="5" fill="rgba(31, 119, 180, 255)"/><circle cx="-504444974067089400" cy="-1.0677230858132342e+35" r="5" fill="rgba(31, 119, 180, 255)"/><circle cx="12845761" cy="-3.596946586339068e-17" r="5" fill="rgba(31, 119, 180, 255)"/><circle cx="NaN" cy="-1.9990814559278647e-12" r="5" fill="rgba(31, 119, 180, 255)"/><circle cx="1.846085665967064e+33" cy="3.3383776627416707e+33" r="5" fill="rgba(31, 119, 180, 255)"/><circle cx="-4.6813878850505284e-35" cy="3223504" r="5" fill="rgba(31, 119, 180, 255)"/><circle cx="-1.8715249032462814e-35" cy="-6.1101286989798665e+29" r="5" fill="rgba(31, 119, 180, 255)"/><circle cx="8.869801695853522e+30" cy="6229229568" r="5" fill="rgba(31, 119, 180, 255)"/><circle cx="2.0175248265601914e+26" cy="-826.55078125" r="5" fill="rgba(31, 119, 180, 255)"/><circle cx="4.3025998481111595e-22" cy="-1.3059622827604755e-12" r="5" fill="rgba(31, 119, 180, 255)"/><circle cx="4.1840830738500025e+31" cy="-2.8574291564993337e+29" r="5" fill="rgba(31, 119, 180, 255)"/><circle cx="4.6618260397071615e+27" cy="-8.525287352441027e-19" r="5" fill="rgba(31, 119, 180, 255)"/><circle cx="1.647741662623263e-16" cy="-9.254147726422353e-22" r="5" fill="rgba(31, 119, 180, 255)"/><circle cx="-162.8310546875" cy="NaN" r="5" fill="rgba(31, 119, 180, 255)"/><circle cx="0.0007746331975795329" cy="7536672768" r="5" fill="rgba(31, 119, 180, 255)"/><circle cx="-1.3619853689306183e-8" cy="3.1394896979368575e-22" r="5" fill="rgba(31, 119, 180, 255)"/><circle cx="7.191410327715649e+31" cy="-1508380770304" r="5" fill="rgba(31, 119, 180, 255)"/><circle cx="-3434078011392" cy="-1.2634286751034873e-34" r="5" fill="rgba(31, 119, 180, 255)"/><circle cx="1.2620096088108568e+22" cy="226550201555152270000" r="5" fill="rgba(31, 119, 180, 255)"/><circle cx="70656545641201660" cy="7.226527467986073e+34" r="5" fill="rgba(31, 119, 180, 255)"/><circle cx="-5899616.5" cy="-9.785184754984325e-21" r="5" fill="rgba(31, 119, 180, 255)"/><circle cx="-5.1342765134280565e+22" cy="-171881472" r="5" fill="rgba(31, 119, 180, 255)"/><circle cx="-0.00041777457226999104" cy="6263.90625" r="5" fill="rgba(31, 119, 180, 255)"/><circle cx="-4.179237964089747e+27" cy="649620" r="5" fill="rgba(31, 119, 180, 255)"/><circle cx="-1.6153977044908174e-9" cy="39466722918400" r="5" fill="rgba(31, 119, 180, 255)"/><circle cx="-1.7118274477319496e+34" cy="7172698463535104" r="5" fill="rgba(31, 119, 180, 255)"/><circle cx="-1.7096720549827e+24" cy="1.7980026964588584e-37" r="5" fill="rgba(31, 119, 180, 255)"/><circle cx="-5.1462496032533986e+23" cy="6.072235803500957e+22" r="5" fill="rgba(31, 119, 180, 255)"/><circle cx="1.3428006536558845e-14" cy="2.0026423410568082e+34" r="5" fill="rgba(31, 119, 180, 255)"/><circle cx="97733.5" cy="2.581603386371578e+24" r="5" fill="rgba(31, 119, 180, 255)"/><circle cx="1022898176" cy="-1897128" r="5" fill="rgba(31, 119, 180, 255)"/><circle cx="-1.6756804277484605e-12" cy="-1.1059640631886223e+27" r="5" fill="rgba(31, 119, 180, 255)"/><circle cx="256662528" cy="44674531826073600" r="5" fill="rgba(31, 119, 180, 255)"/><circle cx="-2.343817361271682e+22" cy="1.239180575244616e-23" r="5" fill="rgba(31, 119, 180, 255)"/><circle cx="4.938098541185099e-13" cy="-3.474168078496624e-27" r="5" fill="rgba(31, 119, 180, 255)"/><circle cx="-2.4767114511900698e+28" cy="2.1065976130917745e+34" r="5" fill="rgba(31, 119, 180, 255)"/><circle cx="0.000007303170150407823" cy="15662.0625" r="5" fill="rgba(31, 119, 180, 255)"/><circle cx="-141770637312" cy="78409459826688" r="5" fill="rgba(31, 119, 180, 255)"/><circle cx="3.4487896982682287e-9" cy="-1.0567754480936718e-37" r="5" fill="rgba(31, 119, 180, 255)"/><circle cx="8.338536688108641e+37" cy="2013.5078125" r="5" fill="rgba(31, 119, 180, 255)"/><circle cx="1.5889246215563563e-38" cy="15254606731578180000" r="5" fill="rgba(31, 119, 180, 255)"/><circle cx="1.3355362134697815e-35" cy="-7.497238254218351e-39" r="5" fill="rgba(31, 119, 180, 255)"/><circle cx="-1.809891586717136e-25" cy="-71385040814080" r="5" fill="rgba(31, 119, 180, 255)"/><circle cx="-549375382864789500" cy="-4.500879707222227e-34" r="5" fill="rgba(31, 119, 180, 255)"/><circle cx="-11412636672" cy="1.486688550045301e-11" r="5" fill="rgba(31, 119, 180, 255)"/><circle cx="1.846476860089507e-26" cy="457.189453125" r="5" fill="rgba(31, 119, 180, 255)"/><circle cx="1.9735901661444526e+36" cy="4.275429206615941e-23" r="5" fill="rgba(31, 119, 180, 255)"/><circle cx="9774864529358848" cy="0.000015132187400013208" r="5" fill="rgba(31, 119, 180, 255)"/><circle cx="6.348647464942542e-16" cy="-1.0250150744516884e-38" r="5" fill="rgba(31, 119, 180, 255)"/><circle cx="-8.819930463060954e-15" cy="-0.0005674846470355988" r="5" fill="rgba(31, 119, 180, 255)"/><circle cx="-2.549005683750324e+23" cy="1.517555389200817e-25" r="5" fill="rgba(31, 119, 180, 255)"/><circle cx="0.000028238515369594097" cy="-507.814453125" r="5" fill="rgba(31, 119, 180, 255)"/><circle cx="50711376229121920000" cy="178843511947264" r="5" fill="rgba(31, 119, 180, 255)"/><circle cx="1.7121673745188407e-25" cy="-2.0131537936511363e-17" r="5" fill="rgba(31, 119, 180, 255)"/><circle cx="9.289890995984572e+24" cy="-8.343874321108492e+33" r="5" fill="rgba(31, 119, 180, 255)"/><circle cx="1.3325681144882263e-17" cy="1.1951660242751677e+26" r="5" fill="rgba(31, 119, 180, 255)"/><circle cx="3341360" cy="-5.470387958517102e-36" r="5" fill="rgba(31, 119, 180, 255)"/><circle cx="-9.2297697262822e-13" cy="-0.000026318361051380634" r="5" fill="rgba(31, 119, 180, 255)"/><circle cx="3401194668032" cy="-1.679790337096331e+29" r="5" fill="rgba(31, 119, 180, 255)"/><circle cx="2.201343504143483e-17" cy="1.2034212796158655e+36" r="5" fill="rgba(31, 119, 180, 255)"/><circle cx="-3.049368499446176e-19" cy="-34676169018380910000" r="5" fill="rgba(31, 119, 180, 255)"/><circle cx="-1.145710951474549e-36" cy="1.2294594246607837e+29" r="5" fill="rgba(31, 119, 180, 255)"/><circle cx="6.652309775644604e-22" cy="-0.00006237858906388283" r="5" fill="rgba(31, 119, 180, 255)"/><circle cx="6.4378551133121995e+25" cy="-5.982192633991162e+22" r="5" fill="rgba(31, 119, 180, 255)"/><circle cx="68.95068359375" cy="-64189.25" r="5" fill="rgba(31, 119, 180, 255)"/><circle cx="6.032630991970045e-14" cy="-2030632" r="5" fill="rgba(31, 119, 180, 255)"/><circle cx="5256369268211057000" cy="2.657231040771151e+29" r="5" fill="rgba(31, 119, 180, 255)"/><circle cx="-3.7779705575481715e+32" cy="122826.5" r="5" fill="rgba(31, 119, 180, 255)"/><circle cx="-3.114084443679498e+22" cy="-1.0467489433055389e-30" r="5" fill="rgba(31, 119, 180, 255)"/><circle cx="4.136471918072974e+27" cy="3.723830133139927e-10" r="5" fill="rgba(31, 119, 180, 255)"/><circle cx="-6.033381151639304e-27" cy="-5.467850589535006e+29" r="5" fill="rgba(31, 119, 180, 255)"/><circle cx="-3.747646637464186e-11" cy="-1827512320" r="5" fill="rgba(31, 119, 180, 255)"/><circle cx="-3.909698424926257e-14" cy="-1.2564002011512039e+35" r="5" fill="rgba(31, 119, 180, 255)"/><circle cx="-1.5080523661572538e+32" cy="2.343250074386784e-29" r="5" fill="rgba(31, 119, 180, 255)"/><circle cx="2.5237632124340568e+30" cy="-0.0000013093595043756068" r="5" fill="rgba(31, 119, 180, 255)"/><circle cx="NaN" cy="-2.912340598221607e+32" r="5" fill="rgba(31, 119, 180, 255)"/><circle cx="-463625350623841500000" cy="-301268385033879550" r="5" fill="rgba(31, 119, 180, 255)"/><circle cx="-1.1209415140216333e+21" cy="-1.567116214573616e-8" r="5" fill="rgba(31, 119, 180, 255)"/><circle cx="-1.7215951808332643e+29" cy="2.3352674986397438e+30" r="5" fill="rgba(31, 119, 180, 255)"/><circle cx="-1.3930208982854131e-14" cy="1.2592264013548204e+25" r="5" fill="rgba(31, 119, 180, 255)"/><circle cx="10.564148902893066" cy="2.0962117268765249e-16" r="5" fill="rgba(31, 119, 180, 255)"/><circle cx="5.001719363435884e+23" cy="-9.176473783789996e-27" r="5" fill="rgba(31, 119, 180, 255)"/><circle cx="7.217241927339401e+35" cy="1.0196760383403316e+28" r="5" fill="rgba(31, 119, 180, 255)"/><circle cx="-63684.75" cy="-2757180025470976" r="5" fill="rgba(31, 119, 180, 255)"/><circle cx="8.730182798899477e-9" cy="59560427520" r="5" fill="rgba(31, 119, 180, 255)"/><circle cx="9.86273193359375" cy="1.9297119457917233e-11" r="5" fill="rgba(31, 119, 180, 255)"/><circle cx="-5.1675273619471806e+35" cy="-1.4138532531491442e+30" r="5" fill="rgba(31, 119, 180, 255)"/><circle cx="1.0532606625875281e-33" cy="-1112648" r="5" fill="rgba(31, 119, 180, 255)"/><circle cx="-1.8100914756321311e+37" cy="1.0989456176757812" r="5" fill="rgba(31, 119, 180, 255)"/><circle cx="238623031033856" cy="3.3323674460246036e+37" r="5" fill="rgba(31, 119, 180, 255)"/><circle cx="1.1093277334548928e+38" cy="3.637299269033487e-20" r="5" fill="rgba(31, 119, 180, 255)"/><circle cx="-884371456" cy="-7.910495125035979e+25" r="5" fill="rgba(31, 119, 180, 255)"/><circle cx="-2.122908511308086e-15" cy="-262492295004160" r="5" fill="rgba(31, 119, 180, 255)"/><circle cx="3900216442880" cy="1.6907796463449299e-34" r="5" fill="rgba(31, 119, 180, 255)"/><circle cx="8617937778769920" cy="-6.524157080209661e+27" r="5" fill="rgba(31, 119, 180, 255)"/><circle cx="-2.198064658746138e-21" cy="-5.109252560653636e+37" r="5" fill="rgba(31, 119, 180, 255)"/><circle cx="1211541618688" cy="-13658331545600" r="5" fill="rgba(31, 119, 180, 255)"/><circle cx="-2.0578540607663065e-11" cy="1.4980106044504282e-10" r="5" fill="rgba(31, 119, 180, 255)"/><circle cx="608017474892408600000" cy="7.603064314244161e-39" r="5" fill="rgba(31, 119, 180, 255)"/><circle cx="4.319767361691006e-39" cy="-5.041056461152493e-11" r="5" fill="rgba(31, 119, 180, 255)"/><circle cx="-12920269307904" cy="-1456136" r="5" fill="rgba(31, 119, 180, 255)"/><circle cx="-2.6745565297590005e+25" cy="-0.000012857664842158556" r="5" fill="rgba(31, 119, 180, 255)"/><circle cx="268348416" cy="69151927853343834000" r="5" fill="rgba(31, 119, 180, 255)"/><circle cx="1.279841720350941e-24" cy="4.195671587936545e-12" r="5" fill="rgba(31, 119, 180, 255)"/><circle cx="1.3935847681184003e-14" cy="5.745665959615707e+33" r="5" fill="rgba(31, 119, 180, 255)"/><circle cx="-8.113831996094338e-24" cy="2.9342594146503924e+28" r="5" fill="rgba(31, 119, 180, 255)"/><circle cx="1.1883648336742528e+21" cy="-1.896655177227748e+38" r="5" fill="rgba(31, 119, 180, 255)"/><circle cx="4.230549591199839e-11" cy="-1.5922774427248293e-21" r="5" fill="rgba(31, 119, 180, 255)"/><circle cx="-5822.71875" cy="1546568" r="5" fill="rgba(31, 119, 180, 255)"/><circle cx="-3.3510988439343465e-29" cy="3.411672528687293e-15" r="5" fill="rgba(31, 119, 180, 255)"/><circle cx="28321384448" cy="-1.1191236106992973e+23" r="5" fill="rgba(31, 119, 180, 255)"/><circle cx="-8.879536678303492e-26" cy="-3.2246210313941634e+30" r="5" fill="rgba(31, 119, 180, 255)"/><circle cx="-2.8709235827872904e-30" cy="1.6737033539971635e+22" r="5" fill="rgba(31, 119, 180, 255)"/><circle cx="-37.010501861572266" cy="-1.258466632561781e+31" r="5" fill="rgba(31, 119, 180, 255)"/><circle cx="-2155240493154304" cy="7.206316141286333e+28" r="5" fill="rgba(31, 119, 180, 255)"/><circle cx="3.8019013788645245e-33" cy="1.486490288342922e+25" r="5" fill="rgba(31, 119, 180, 255)"/><circle cx="1.1197653915218098e-11" cy="-0.003660634160041809" r="5" fill="rgba(31, 119, 180, 255)"/><circle cx="-122938720256" cy="-8.089069778588476e-15" r="5" fill="rgba(31, 119, 180, 255)"/><circle cx="-1.5137715402450114e-20" cy="3.443968532105042e+30" r="5" fill="rgba(31, 119, 180, 255)"/><circle cx="1.5959519341021547e-20" cy="263934976" r="5" fill="rgba(31, 119, 180, 255)"/><circle cx="-5139808" cy="4.953986919113325e-38" r="5" fill="rgba(31, 119, 180, 255)"/><circle cx="-31339170496512" cy="1.5851027042060062e-34" r="5" fill="rgba(31, 119, 180, 255)"/><circle cx="6.403660448504178e-37" cy="-648208711680" r="5" fill="rgba(31, 119, 180, 255)"/><circle cx="0.00010529858991503716" cy="2.6551621282501987e+37" r="5" fill="rgba(31, 119, 180, 255)"/><circle cx="-787074231828480" cy="-1.8171726672373376e+29" r="5" fill="rgba(31, 119, 180, 255)"/><circle cx="0.0003566425293684006" cy="-9213555597041992000" r="5" fill="rgba(31, 119, 180, 255)"/><circle cx="-0.0000017571946955285966" cy="-4.981486563716873e+35" r="5" fill="rgba(31, 119, 180, 255)"/><circle cx="-207159820288" cy="-0.02217686176300049" r="5" fill="rgba(31, 119, 180, 255)"/><circle cx="3022365130752" cy="-2.3511309026820188e-26" r="5" fill="rgba(31, 119, 180, 255)"/><circle cx="2504124812998213600" cy="7.067402644929761e-35" r="5" fill="rgba(31, 119, 180, 255)"/><circle cx="7.297878451944416e-25" cy="4.281832843844313e-8" r="5" fill="rgba(31, 119, 180, 255)"/><circle cx="2.296805580357102e+26" cy="1122672574464" r="5" fill="rgba(31, 119, 180, 255)"/><circle cx="-700379136" cy="6.201366434865148e-18" r="5" fill="rgba(31, 119, 180, 255)"/><circle cx="3.0364228643657795e-17" cy="-8.235577345767744e+34" r="5" fill="rgba(31, 119, 180, 255)"/><circle cx="-1.9834601761610393e-37" cy="1.1301155669031439e-32" r="5" fill="rgba(31, 119, 180, 255)"/><circle cx="-9.892860268961071e+21" cy="5.212156361064249e+22" r="5" fill="rgba(31, 119, 180, 255)"/><circle cx="38.269290924072266" cy="-154.7666015625" r="5" fill="rgba(31, 119, 180, 255)"/><circle cx="6.798249560736167e-39" cy="87.77197265625" r="5" fill="rgba(31, 119, 180, 255)"/><circle cx="80726469166755740000" cy="-0.010244429111480713" r="5" fill="rgba(31, 119, 180, 255)"/><circle cx="1.0204450591199972e+23" cy="2.8818067812552504e-21" r="5" fill="rgba(31, 119, 180, 255)"/><circle cx="1.202216030478445e-19" cy="-1.5130700523114752e-22" r="5" fill="rgba(31, 119, 180, 255)"/><circle cx="-8.167987691537668e+23" cy="1.617245631020801e-19" r="5" fill="rgba(31, 119, 180, 255)"/><circle cx="61.751712799072266" cy="-3.1978383418639674e-33" r="5" fill="rgba(31, 119, 180, 255)"/><circle cx="3.243243895667547e-9" cy="1.197259804222113e-32" r="5" fill="rgba(31, 119, 180, 255)"/><circle cx="4.382236928899999e+34" cy="3.518700310004136e-22" r="5" fill="rgba(31, 119, 180, 255)"/><circle cx="-4.268283989206941e-16" cy="7769183521603584" r="5" fill="rgba(31, 119, 180, 255)"/><circle cx="3.469772618511421e+32" cy="9.492103283936792e-14" r="5" fill="rgba(31, 119, 180, 255)"/><circle cx="1.1604489042447118e-26" cy="-0.00001327489735558629" r="5" fill="rgba(31, 119, 180, 255)"/><circle cx="4609135151450947600" cy="1.1041611291815678e-35" r="5" fill="rgba(31, 119, 180, 255)"/><circle cx="-6.3044469320340635e-28" cy="-2.9313187025941798e+29" r="5" fill="rgba(31, 119, 180, 255)"/><circle cx="-4.9023154689086014e+29" cy="-3.228624993708727e+31" r="5" fill="rgba(31, 119, 180, 255)"/><circle cx="9.931973323231988e-35" cy="457.728515625" r="5" fill="rgba(31, 119, 180, 255)"/><circle cx="0.004515260457992554" cy="4.66755744756065e-24" r="5" fill="rgba(31, 119, 180, 255)"/><circle cx="2.565326007175628e-10" cy="-1.3943556975303995e+30" r="5" fill="rgba(31, 119, 180, 255)"/><circle cx="NaN" cy="9.025136735580134e-25" r="5" fill="rgba(31, 119, 180, 255)"/><circle cx="-4.869041390572734e+32" cy="-7.4105876116711255e+31" r="5" fill="rgba(31, 119, 180, 255)"/><circle cx="2.2812604301446077e+31" cy="1.979782279334282e-34" r="5" fill="rgba(31, 119, 180, 255)"/><circle cx="3.9416804465558314e-30" cy="1.0493440383024383e-22" r="5" fill="rgba(31, 119, 180, 255)"/><circle cx="171625676800" cy="-3.5302912178200237e-28" r="5" fill="rgba(31, 119, 180, 255)"/><circle cx="1.8363144582489005e+25" cy="6.287839275715982e-21" r="5" fill="rgba(31, 119, 180, 255)"/><circle cx="-0.0021966546773910522" cy="-1.331366738451246e-35" r="5" fill="rgba(31, 119, 180, 255)"/><circle cx="2.1730000306533683e-36" cy="-0.0006665773689746857" r="5" fill="rgba(31, 119, 180, 255)"/><circle cx="-9.627576346863995e+30" cy="-71159567915941890" r="5" fill="rgba(31, 119, 180, 255)"/><circle cx="1.3128086588657245e+24" cy="49749248" r="5" fill="rgba(31, 119, 180, 255)"/><circle cx="0.2059469223022461" cy="1.9543769076771352e-32" r="5" fill="rgba(31, 119, 180, 255)"/><circle cx="-1.4519374614341558e+23" cy="-1.45922786593674e+29" r="5" fill="rgba(31, 119, 180, 255)"/><circle cx="-4.303690989049269e-34" cy="6.906079639313727e-24" r="5" fill="rgba(31, 119, 180, 255)"/><circle cx="5.397357467375446e-17" cy="1.0526202113981268e+27" r="5" fill="rgba(31, 119, 180, 255)"/><circle cx="-3926136120462541000" cy="-38723840" r="5" fill="rgba(31, 119, 180, 255)"/><circle cx="821833728" cy="2.540866693651701e+37" r="5" fill="rgba(31, 119, 180, 255)"/><circle cx="-62.980224609375" cy="3.5349701216797994e-33" r="5" fill="rgba(31, 119, 180, 255)"/><circle cx="8.334221845409099e-30" cy="5.464968755308774e-13" r="5" fill="rgba(31, 119, 180, 255)"/><circle cx="-1.1925932597023348e-7" cy="-3.8068308115213866e+35" r="5" fill="rgba(31, 119, 180, 255)"/><circle cx="-1.8729565454123076e-8" cy="-1.4632130333595486e-22" r="5" fill="rgba(31, 119, 180, 255)"/><circle cx="-3261785081559122000" cy="-1.1373032512167244e+31" r="5" fill="rgba(31, 119, 180, 255)"/><circle cx="-2.149793878146986e-26" cy="48820.25" r="5" fill="rgba(31, 119, 180, 255)"/><circle cx="-1.6948972371512897e-26" cy="-2.784981326979927e+32" r="5" fill="rgba(31, 119, 180, 255)"/><circle cx="-2.374139196842842e+22" cy="-854.84765625" r="5" fill="rgba(31, 119, 180, 255)"/><circle cx="-0.0009460411965847015" cy="-2.218604281985627e-18" r="5" fill="rgba(31, 119, 180, 255)"/><circle cx="8.312975678393693e-31" cy="-1.0426618565137712e+23" r="5" fill="rgba(31, 119, 180, 255)"/><circle cx="-9.473440077129993e-23" cy="1.3936395274382034e-37" r="5" fill="rgba(31, 119, 180, 255)"/><circle cx="4.2828287405427545e-7" cy="-2.9819063884772845e-12" r="5" fill="rgba(31, 119, 180, 255)"/><circle cx="-852.0742797851562" cy="-30055837540024320" r="5" fill="rgba(31, 119, 180, 255)"/><circle cx="1.8116827482650422e-12" cy="-1.9808521756203845e-7" r="5" fill="rgba(31, 119, 180, 255)"/><circle cx="-38670176256" cy="-5.8170607484339785e-31" r="5" fill="rgba(31, 119, 180, 255)"/><circle cx="-1718837248" cy="2.1890134149771256e-10" r="5" fill="rgba(31, 119, 180, 255)"/><circle cx="3.7190401554107666" cy="3.695092200566889e-31" r="5" fill="rgba(31, 119, 180, 255)"/><circle cx="8.466107514761248e+29" cy="-1.1000618818646224e-13" r="5" fill="rgba(31, 119, 180, 255)"/><circle cx="-5.370798024736344e+29" cy="2.578582679079974e+31" r="5" fill="rgba(31, 119, 180, 255)"/><circle cx="-1.9101788206743464e-10" cy="7.624450053950174e+21" r="5" fill="rgba(31, 119, 180, 255)"/><circle cx="-7.616797166554903e-27" cy="8.43747589261716e-39" r="5" fill="rgba(31, 119, 180, 255)"/><circle cx="-729196.0625" cy="-2.95546472910507e+27" r="5" fill="rgba(31, 119, 180, 255)"/><circle cx="0.008356988430023193" cy="1.6469497680664062" r="5" fill="rgba(31, 119, 180, 255)"/><circle cx="-2.933901680047849e-30" cy="0.00015502888709306717" r="5" fill="rgba(31, 119, 180, 255)"/><circle cx="2.771856067713404e+31" cy="-8.524581932814641e-17" r="5" fill="rgba(31, 119, 180, 255)"/><circle cx="-36591.75" cy="0.0000013097960618324578" r="5" fill="rgba(31, 119, 180, 255)"/><circle cx="5.230619827344862e-35" cy="1.5167756344380822e+35" r="5" fill="rgba(31, 119, 180, 255)"/><circle cx="4.9998673631826335e-21" cy="-4.7167629181705866e-35" r="5" fill="rgba(31, 119, 180, 255)"/><circle cx="3.5671986198249073e-13" cy="-5.861540316419319e+35" r="5" fill="rgba(31, 119, 180, 255)"/><circle cx="-3.179255028866397e+35" cy="8.385600610961286e+27" r="5" fill="rgba(31, 119, 180, 255)"/><circle cx="-2713194594304" cy="-1.1054493252419895e+28" r="5" fill="rgba(31, 119, 180, 255)"/><circle cx="-2.084134838824237e-37" cy="-4.807833735269964e-29" r="5" fill="rgba(31, 119, 180, 255)"/><circle cx="92551.5" cy="-6.715979901891731e+24" r="5" fill="rgba(31, 119, 180, 255)"/><circle cx="-1.5709569062272166e-13" cy="-18334848" r="5" fill="rgba(31, 119, 180, 255)"/><circle cx="3.740629475619132e-23" cy="11764.5625" r="5" fill="rgba(31, 119, 180, 255)"/><circle cx="-1918841441954562000" cy="1.8952876286000572e-26" r="5" fill="rgba(31, 119, 180, 255)"/><circle cx="-3.791163046243378e+35" cy="214.6376953125" r="5" fill="rgba(31, 119, 180, 255)"/><circle cx="350422835205884600000" cy="0.0000064332562033087015" r="5" fill="rgba(31, 119, 180, 255)"/><circle cx="609780498432" cy="-9.252596762773816e-22" r="5" fill="rgba(31, 119, 180, 255)"/><circle cx="1.5284565002778852e-23" cy="-1.0619910233291222e+37" r="5" fill="rgba(31, 119, 180, 255)"/><circle cx="-1.9992599487304688" cy="9244311552" r="5" fill="rgba(31, 119, 180, 255)"/><circle cx="-89658888" cy="-8.880683496309759e-34" r="5" fill="rgba(31, 119, 180, 255)"/><circle cx="1.165817652596614e+33" cy="-2.2018528630387126e+29" r="5" fill="rgba(31, 119, 180, 255)"/><circle cx="1.0709901993971793e-31" cy="-1.9611101393186453e-32" r="5" fill="rgba(31, 119, 180, 255)"/><circle cx="3609031081984" cy="362238967808" r="5" fill="rgba(31, 119, 180, 255)"/><circle cx="-3.440899294653184e-18" cy="130856.5" r="5" fill="rgba(31, 119, 180, 255)"/><circle cx="1.90211959002416e-22" cy="9.374312520237904e+23" r="5" fill="rgba(31, 119, 180, 255)"/><circle cx="-6.521396045400252e-8" cy="1.407171084216812e-29" r="5" fill="rgba(31, 119, 180, 255)"/><circle cx="6.264043781291709e-14" cy="-2194809926994362400" r="5" fill="rgba(31, 119, 180, 255)"/><circle cx="4327867013922816" cy="-2.4174198358400353e+37" r="5" fill="rgba(31, 119, 180, 255)"/><circle cx="5166170112" cy="908406554624" r="5" fill="rgba(31, 119, 180, 255)"/><circle cx="-3.1783521415716654e-24" cy="-0.0000035706470953300595" r="5" fill="rgba(31, 119, 180, 255)"/><circle cx="1.165576966541404e-14" cy="5.121208148173338e+23" r="5" fill="rgba(31, 119, 180, 255)"/><circle cx="0.003845855826511979" cy="0.0008311755955219269" r="5" fill="rgba(31, 119, 180, 255)"/><circle cx="-8.007670643225245e-29" cy="-4.3545036057878965e+32" r="5" fill="rgba(31, 119, 180, 255)"/><circle cx="1.9490830968873133e+28" cy="3.758457264616677e+35" r="5" fill="rgba(31, 119, 180, 255)"/><circle cx="1.7049348044473334e-12" cy="77.34033203125" r="5" fill="rgba(31, 119, 180, 255)"/><circle cx="5.939199798632444e-9" cy="-461.150390625" r="5" fill="rgba(31, 119, 180, 255)"/><circle cx="-6.649859059856491e-38" cy="2.8860651679258973e+22" r="5" fill="rgba(31, 119, 180, 255)"/><circle cx="-188921652707328" cy="3.1073826409749714e-31" r="5" fill="rgba(31, 119, 180, 255)"/><circle cx="2.0272932777483314e+28" cy="-1.8567888360398074e-34" r="5" fill="rgba(31, 119, 180, 255)"/><circle cx="-1.7766365943058508e-37" cy="1.0385216807108491e+29" r="5" fill="rgba(31, 119, 180, 255)"/><circle cx="9.95981144780167e-11" cy="8.078862342692965e-32" r="5" fill="rgba(31, 119, 180, 255)"/><circle cx="-4.316204944372302e-17" cy="-7.324100929916991e-31" r="5" fill="rgba(31, 119, 180, 255)"/><circle cx="1.3150233939968059e-14" cy="1525882880" r="5" fill="rgba(31, 119, 180, 255)"/><circle cx="-1010348032" cy="0.40003395080566406" r="5" fill="rgba(31, 119, 180, 255)"/><circle cx="-4.6218556346482477e+27" cy="40429317431230460" r="5" fill="rgba(31, 119, 180, 255)"/><circle cx="7.504067014871044e+27" cy="14004060160" r="5" fill="rgba(31, 119, 180, 255)"/><circle cx="8.776415360640409e-30" cy="-43202.25" r="5" fill="rgba(31, 119, 180, 255)"/><circle cx="-1.898377297199442e-30" cy="-0.058252573013305664" r="5" fill="rgba(31, 119, 180, 255)"/><circle cx="19129216" cy="4.056184723988029e-26" r="5" fill="rgba(31, 119, 180, 255)"/><circle cx="-0.0000020998268155381083" cy="-1.082767059198237e-27" r="5" fill="rgba(31, 119, 180, 255)"/><circle cx="3.344275673316341e+30" cy="1.140399774612888e-9" r="5" fill="rgba(31, 119, 180, 255)"/><circle cx="4.100558458055502e-26" cy="-2.0169972056493027e-16" r="5" fill="rgba(31, 119, 180, 255)"/><circle cx="-406533686951936" cy="-3.1014854568240203e+33" r="5" fill="rgba(31, 119, 180, 255)"/><circle cx="-4.151702880859375" cy="-690671845376" r="5" fill="rgba(31, 119, 180, 255)"/><circle cx="29310.375" cy="1.4121951266994987e-25" r="5" fill="rgba(31, 119, 180, 255)"/><circle cx="2.1566543885344665e-38" cy="-0.036322832107543945" r="5" fill="rgba(31, 119, 180, 255)"/><circle cx="1.1484495005456123e+21" cy="32220.125" r="5" fill="rgba(31, 119, 180, 255)"/><circle cx="2.387015766787355e-35" cy="-13338738688" r="5" fill="rgba(31, 119, 180, 255)"/><circle cx="3.5284664079426875e-10" cy="-289983402306665700000" r="5" fill="rgba(31, 119, 180, 255)"/><circle cx="5.980195454962122e+37" cy="2.1169533059212838e-29" r="5" fill="rgba(31, 119, 180, 255)"/><circle cx="-4.933326758475492e+30" cy="-73048.5" r="5" fill="rgba(31, 119, 180, 255)"/><circle cx="7.338348388671875" cy="-6.302826754439677e-20" r="5" fill="rgba(255, 127, 14, 255)"/></svg>